<svg width="260" height="260" viewBox="0 0 260 260" fill="none" xmlns="http://www.w3.org/2000/svg">
<g clip-path="url(#clip0_1252_2511)">
<circle cx="130" cy="130" r="130" fill="#748C70"/>
<path d="M223.89 111.938C226.099 111.938 227.89 113.729 227.89 115.938V133.993C227.89 134.07 227.888 134.147 227.883 134.223C225.593 174.119 214.605 202.292 196.423 220.482C178.203 238.709 153.344 246.326 124.584 246.326H97.3745C97.2472 246.326 97.1203 246.32 96.9946 246.308C96.1627 249.196 95.4289 252.154 94.7876 255.18C92.1989 254.453 89.6431 253.648 87.1226 252.768C88.0261 248.616 89.1014 244.566 90.3608 240.624C75.3358 222.955 75.3188 205.792 75.3188 197.188V197.177L75.3267 196.082C75.6066 173.128 82.708 151.999 100.443 136.614C118.361 121.07 146.514 111.938 187.652 111.938H223.89ZM187.652 119.938C147.54 119.938 121.589 128.861 105.685 142.657C89.8795 156.368 83.3799 175.437 83.3188 197.198C83.3188 204.584 83.3107 217.682 93.5757 231.785C96.2052 225.38 99.3912 219.302 103.2 213.589C113.816 197.664 129.106 184.782 150.042 175.477C152.061 174.579 154.426 175.489 155.323 177.508C156.22 179.526 155.31 181.89 153.292 182.787C133.603 191.538 119.553 203.482 109.857 218.026C105.687 224.282 102.298 231.059 99.6108 238.326H124.584C151.959 238.326 174.496 231.101 190.766 214.825C207.061 198.524 217.654 172.56 219.89 133.859V119.938H187.652Z" fill="white"/>
</g>
<defs>
<clipPath id="clip0_1252_2511">
<rect width="260" height="260" fill="white"/>
</clipPath>
</defs>
</svg>
